<?xml version="1.0" encoding="UTF-8" standalone="no"?>
<!-- Created with Inkscape (http://www.inkscape.org/) -->

<svg
   xmlns:dc="http://purl.org/dc/elements/1.1/"
   xmlns:cc="http://creativecommons.org/ns#"
   xmlns:rdf="http://www.w3.org/1999/02/22-rdf-syntax-ns#"
   xmlns:svg="http://www.w3.org/2000/svg"
   xmlns="http://www.w3.org/2000/svg"
   xmlns:sodipodi="http://sodipodi.sourceforge.net/DTD/sodipodi-0.dtd"
   xmlns:inkscape="http://www.inkscape.org/namespaces/inkscape"
   width="117.24716mm"
   height="125.63396mm"
   viewBox="0 0 117.24716 125.63396"
   version="1.1"
   id="svg8"
   inkscape:version="0.92.2 5c3e80d, 2017-08-06"
   sodipodi:docname="ITK_logo.svg">
  <defs
     id="defs2">
    <style
       id="style143">.cls-1{fill:#fff;}.cls-2{fill:#00646a;}.cls-3{fill:#d5a10e;}.cls-4{fill:#006469;}</style>
  </defs>
  <sodipodi:namedview
     id="base"
     pagecolor="#ffffff"
     bordercolor="#666666"
     borderopacity="1.0"
     inkscape:pageopacity="0.0"
     inkscape:pageshadow="2"
     inkscape:zoom="1.632377"
     inkscape:cx="300.38288"
     inkscape:cy="166.13052"
     inkscape:document-units="mm"
     inkscape:current-layer="g340"
     showgrid="false"
     inkscape:pagecheckerboard="true"
     fit-margin-top="1"
     fit-margin-left="1"
     fit-margin-bottom="1"
     fit-margin-right="1"
     inkscape:window-width="2560"
     inkscape:window-height="1315"
     inkscape:window-x="1920"
     inkscape:window-y="1"
     inkscape:window-maximized="1" />
  <metadata
     id="metadata5">
    <rdf:RDF>
      <cc:Work
         rdf:about="">
        <dc:format>image/svg+xml</dc:format>
        <dc:type
           rdf:resource="http://purl.org/dc/dcmitype/StillImage" />
        <dc:title></dc:title>
      </cc:Work>
    </rdf:RDF>
  </metadata>
  <g
     inkscape:label="Calque 1"
     inkscape:groupmode="layer"
     id="layer1"
     transform="translate(-45.439981,-12.726167)">
    <g
       id="g340"
       transform="translate(-216.92331,-8.3496213)">
      <path
         style="fill:#d6a720;stroke-width:0.26458332"
         d="m 341.21186,145.22491 c -0.52957,-0.58516 -1.48208,-2.9807 -1.48208,-3.72738 0,-1.13052 2.4704,-1.43307 4.43177,-0.54277 1.21295,0.55058 1.32445,0.86986 0.7677,2.19844 -0.94353,2.25158 -2.67922,3.21888 -3.71739,2.07171 z m -36.92749,-1.03856 c -0.8101,-0.8101 -1.77389,-3.43826 -1.51156,-4.12187 0.34304,-0.89396 4.90899,-0.26074 5.2906,0.73371 0.19249,0.50163 -1.09704,3.00037 -1.85685,3.59804 -0.88238,0.69408 -1.03488,0.67742 -1.92219,-0.20988 z m 16.6526,-0.2306 c -0.89955,-1.02453 -1.82903,-2.82442 -1.83888,-3.56087 -0.007,-0.53064 0.42211,-0.70829 2.22242,-0.91988 1.56124,-0.18349 4.31648,0.46776 4.54965,1.0754 0.19015,0.49552 -0.84157,2.4789 -1.83122,3.52034 -1.11739,1.17587 -1.99722,1.14325 -3.10197,-0.11499 z m 23.15844,-4.47963 c -0.69701,-0.26344 -1.72764,-0.37167 -3.01875,-0.31702 l -1.96042,0.083 -1.24013,-3.70417 c -0.68208,-2.03729 -1.49321,-4.19893 -1.80252,-4.80364 -0.57742,-1.12888 -1.70743,-2.20782 -2.31231,-2.20782 -1.08694,0 -2.90672,2.62484 -5.73085,8.26614 -0.71086,1.41998 -1.37565,2.57789 -1.47729,2.57314 -0.10165,-0.005 -0.83966,-0.23899 -1.64002,-0.52053 -1.71966,-0.60491 -3.9487,-0.65614 -5.42396,-0.12466 -0.58209,0.2097 -1.08503,0.38307 -1.11766,0.38526 -0.0326,0.002 -0.76745,-1.04916 -1.63294,-2.33632 -1.60661,-2.38937 -2.92641,-3.74511 -3.64584,-3.74511 -0.63161,0 -1.71664,1.32809 -3.00379,3.67669 -1.78938,3.26498 -1.59653,3.08246 -2.6575,2.51509 -0.63006,-0.33695 -1.5473,-0.49878 -3.00511,-0.53021 -1.64127,-0.0354 -2.17055,-0.14412 -2.43022,-0.49924 -0.55706,-0.76183 -2.23445,-6.27686 -2.29437,-7.54358 l -0.0563,-1.19063 1.71979,0.0267 c 0.94588,0.0147 3.02948,0.35444 4.63021,0.75498 4.70463,1.17722 6.90202,0.73993 10.23974,-2.03776 0.86398,-0.71901 1.9941,-1.89639 2.51139,-2.61642 0.51728,-0.72002 1.05978,-1.26938 1.20554,-1.22079 0.14577,0.0486 0.47632,0.77122 0.73455,1.60585 0.6993,2.26011 1.28762,2.80953 1.86109,1.73799 0.26462,-0.49443 1.52773,-4.70151 2.35436,-7.84172 0.16281,-0.61847 0.40466,-1.12448 0.53745,-1.12448 0.13279,0 1.06225,0.80367 2.06548,1.78594 4.07375,3.98865 8.72439,5.72442 15.13519,5.64894 1.81901,-0.0214 3.60495,-0.0659 3.96875,-0.0989 0.62347,-0.0565 0.66647,0.0236 0.7487,1.39526 0.10656,1.77724 -0.40108,8.23003 -0.83258,10.58333 -0.35829,1.95405 -0.62118,2.10819 -2.42966,1.42465 z m -37.70313,-10.84434 c -3.05031,-0.82198 -7.03345,-1.10524 -8.97892,-0.63853 -0.75262,0.18055 -1.44403,0.25263 -1.53647,0.16019 -0.0924,-0.0924 -0.31888,-1.26672 -0.50318,-2.60951 -0.41171,-2.99964 -0.33142,-3.11868 2.22687,-3.30172 2.06136,-0.14749 2.91548,0.0677 5.86669,1.478 1.62838,0.77816 2.27039,0.94246 3.70417,0.94791 3.02913,0.0115 5.77507,-1.31717 7.42274,-3.59172 0.9612,-1.3269 1.24109,-2.29882 1.56579,-5.43726 0.25074,-2.42352 1.16802,-4.88199 1.92785,-5.16693 0.35068,-0.1315 3.78042,0.21993 4.3779,0.44858 0.51222,0.19603 0.39093,1.06505 -0.22659,1.62353 -0.95255,0.86146 -1.57515,2.42997 -2.12663,5.35761 -0.7187,3.81535 -1.69441,5.76848 -4.05924,8.12564 -3.23293,3.22245 -5.29953,3.77952 -9.66098,2.60421 z m -28.04583,-2.48656 c -0.8241,-0.8241 -0.71759,-2.90813 0.25355,-4.96094 0.43027,-0.9095 0.88372,-1.65364 1.00767,-1.65364 0.12394,0 0.8356,0.5882 1.58147,1.30712 0.82198,0.79229 1.79061,1.4373 2.45925,1.63763 0.60673,0.18178 1.16606,0.49447 1.24295,0.69486 0.30045,0.78295 -3.69636,3.49744 -5.15583,3.50166 -0.50978,0.001 -1.07535,-0.21298 -1.38906,-0.52669 z m 61.42401,-1.59136 c -4.19721,-0.58549 -8.32658,-2.70033 -11.19784,-5.73495 -2.66779,-2.81955 -4.69757,-6.48092 -4.3533,-7.85258 0.10185,-0.40579 0.67817,-0.96671 1.53489,-1.49385 2.39761,-1.47526 6.03807,-5.39866 6.03807,-6.50734 0,-0.13602 -1.43076,-1.49482 -3.17948,-3.019551 -2.75094,-2.398594 -3.16284,-2.861398 -3.05601,-3.433702 0.0679,-0.363802 0.24371,-1.301583 0.39069,-2.083959 0.14698,-0.782375 0.33461,-1.489874 0.41695,-1.572217 0.0824,-0.08235 0.71222,-0.02127 1.39972,0.135715 9.83522,2.245836 10.93173,2.169432 9.07586,-0.632412 -1.10706,-1.671368 -1.10089,-2.91075 0.0209,-4.18837 1.40271,-1.597607 6.2901,-5.101431 9.0866,-6.514299 2.56956,-1.298207 2.69923,-1.333375 4.49792,-1.219927 2.0038,0.126386 3.1436,0.59482 5.75782,2.366364 3.63505,2.463316 7.60364,7.181398 7.60364,9.039643 0,1.219089 -1.03523,2.550853 -2.80705,3.611129 -0.85113,0.509323 -2.13132,1.490358 -2.84487,2.180076 -1.20195,1.161794 -1.28577,1.325547 -1.13962,2.226199 0.35946,2.215041 2.96772,6.086041 7.406,10.991471 1.4083,1.55652 2.56054,2.99165 2.56054,3.18919 0,0.19754 -0.30606,0.97333 -0.68012,1.72398 -1.36042,2.73001 -3.23627,3.05521 -7.2359,1.25441 -2.66073,-1.19797 -4.22391,-1.44688 -5.17459,-0.82397 -0.83782,0.54896 -2.03097,2.91953 -2.66138,5.28768 -0.42107,1.5818 -0.59047,1.86387 -1.29589,2.1579 -2.00663,0.83638 -7.30317,1.31237 -10.16353,0.91337 z m 10.10803,-31.225562 c 4.18278,-1.564978 5.97337,-4.712261 4.08758,-7.18466 -1.9457,-2.550945 -5.73111,-2.396572 -9.93775,0.405273 -2.01171,1.339911 -2.7832,2.422277 -2.7832,3.904703 0,2.219666 1.78178,3.397033 5.15547,3.40664 1.41548,0.004 2.48089,-0.158928 3.4779,-0.531956 z m -5.65079,-1.220295 c -0.21828,-0.08969 -0.60524,-0.344583 -0.8599,-0.566431 -1.83984,-1.602766 2.38595,-5.157605 6.59544,-5.548235 1.20899,-0.112192 1.44986,-0.04718 2.05052,0.553484 1.50354,1.50354 0.53257,3.514511 -2.32963,4.824865 -1.45544,0.666327 -4.59551,1.090062 -5.45643,0.736317 z m -40.08438,29.410427 c -2.7111,-1.34354 -4.85518,-1.82318 -6.98805,-1.56325 -0.95876,0.11684 -1.84633,0.21795 -1.97238,0.22469 -0.12604,0.007 -0.4237,-0.51127 -0.66146,-1.15112 -0.52858,-1.42253 -1.56811,-2.28096 -2.43064,-2.0072 -0.33371,0.10591 -1.65927,1.19004 -2.94568,2.40917 -2.52536,2.39328 -2.89936,2.53843 -4.6556,1.8068 -1.64654,-0.68593 -3.76181,-3.03241 -3.76181,-4.17301 0,-0.20666 1.21242,-2.54794 2.69426,-5.20284 l 2.69427,-4.8271 -0.45121,-2.68165 c -0.99571,-5.917679 -1.25907,-12.679318 -0.59153,-15.186912 0.7606,-2.857193 2.45178,-4.856967 5.16713,-6.109986 1.16128,-0.535881 1.99148,-0.69869 3.98083,-0.780666 3.90754,-0.16102 6.98166,0.846558 10.71851,3.513124 3.28299,2.34269 3.99718,3.790352 3.1841,6.454188 -0.77287,2.532144 -0.80177,3.123602 -0.16912,3.462184 0.56203,0.300789 2.48881,-0.354799 7.26766,-2.472836 0.85485,-0.378878 1.70157,-0.688869 1.8816,-0.688869 0.28109,0 0.54102,0.737524 1.35882,3.855559 0.11811,0.450307 -0.5242,1.102376 -3.59496,3.649584 -2.05632,1.70572 -3.80587,3.27622 -3.8879,3.48998 -0.19656,0.51222 1.74602,3.01167 3.51581,4.52364 l 1.39293,1.19002 -0.78038,1.53567 c -0.82276,1.6191 -1.30791,3.61286 -1.30791,5.37503 0,3.56664 -2.85513,6.28345 -6.59557,6.27603 -0.84452,-0.002 -1.76866,-0.27943 -3.06172,-0.92023 z M 303.4439,97.164696 c 1.9848,-1.670095 1.60325,-5.170371 -0.89609,-8.220477 -2.58309,-3.152326 -8.09233,-3.466979 -9.48058,-0.54147 -0.93052,1.960933 -0.35508,3.523025 2.21499,6.012801 3.26049,3.158636 6.41305,4.220528 8.16168,2.749146 z m -4.19857,-1.696855 c -1.2285,-0.649783 -3.62392,-3.204848 -4.12184,-4.396523 -0.21791,-0.521544 -0.32299,-1.178954 -0.2335,-1.46091 0.37451,-1.179968 3.15062,-1.701848 4.98214,-0.936588 1.11605,0.466315 2.42432,2.054849 2.94089,3.570912 0.51398,1.508429 0.5118,2.40839 -0.008,3.149959 -0.52356,0.747491 -2.21928,0.782334 -3.56007,0.07315 z m 69.05945,26.286449 c -1.41509,-0.6135 -3.43958,-1.97748 -3.43957,-2.31737 0,-0.16673 0.3927,-0.61648 0.87266,-0.99944 0.47996,-0.38296 1.16436,-1.24616 1.52089,-1.91823 0.35653,-0.67207 0.80276,-1.22194 0.99161,-1.22194 0.47245,0 2.46342,4.22917 2.49378,5.29724 0.0159,0.55914 -0.14894,0.99398 -0.46418,1.22449 -0.60705,0.44389 -0.81791,0.43698 -1.97519,-0.0648 z M 320.87114,96.720505 c -0.89497,-0.313587 -1.77886,-1.925809 -1.77886,-3.244665 0,-0.77711 0.14937,-1.031541 0.8599,-1.464759 1.04228,-0.635492 2.46851,-0.67233 3.89725,-0.100664 0.99304,0.397336 1.06369,0.495724 1.06369,1.481368 0,1.200362 -0.65462,2.767875 -1.29126,3.091995 -0.77221,0.393131 -2.00222,0.498985 -2.75072,0.236725 z M 282.13219,84.073941 c -0.31894,-0.128469 -0.77638,-0.533464 -1.01654,-0.899986 -0.40236,-0.614082 -0.40352,-0.765818 -0.0148,-1.932461 0.51873,-1.556681 1.34958,-2.952829 1.87788,-3.155558 0.21777,-0.08357 0.70363,-0.07472 1.07968,0.01966 0.82626,0.207378 3.07282,2.259695 3.84989,3.517017 0.70476,1.140333 0.48519,1.4029 -1.81447,2.169781 -1.73515,0.578628 -3.00083,0.668576 -3.96168,0.281543 z m 6.57098,-3.238606 c -0.9703,-1.396664 -2.21228,-2.571665 -3.67599,-3.477744 -0.61847,-0.382844 -1.12448,-0.742297 -1.12448,-0.798783 0,-0.05648 0.29649,-0.7396 0.65887,-1.518033 1.37302,-2.949406 0.62958,-5.026155 -1.93705,-5.411047 -0.67729,-0.101565 -3.61357,0.0099 -6.52507,0.247685 l -5.29363,0.43235 -0.71791,-0.834096 c -1.39543,-1.621272 -1.99805,-4.758404 -1.06803,-5.560007 0.7909,-0.681691 9.32545,-5.239179 9.81112,-5.239179 0.25283,0 0.68361,0.379063 0.95729,0.842365 0.92225,1.561258 4.46805,5.004196 6.61411,6.422252 2.86366,1.892221 4.47887,2.67258 7.65311,3.697438 2.98637,0.964205 2.69626,0.608555 3.36009,4.119195 0.73762,3.900884 0.48711,4.310898 -3.99225,6.534139 -1.81662,0.901642 -3.44605,1.645783 -3.62096,1.653646 -0.17491,0.0079 -0.66956,-0.491718 -1.09922,-1.110181 z m 71.33338,0.806267 c -1.17641,-0.312451 -1.25528,-0.759349 -0.27067,-1.533845 0.6804,-0.535202 2.32144,-2.646579 2.51999,-3.242262 0.16951,-0.508503 1.22038,0.308404 1.90957,1.48441 0.76187,1.300025 0.86397,2.584146 0.25399,3.194135 -0.47651,0.476507 -2.79326,0.527725 -4.41288,0.09756 z m -5.21513,-1.556043 c -0.79465,-0.281972 -1.54748,-0.615339 -1.67296,-0.740815 -0.1278,-0.127799 0.56586,-0.377079 1.57711,-0.566769 1.08604,-0.203719 2.67489,-0.792541 3.98807,-1.477963 1.90952,-0.996691 2.18281,-1.077015 2.18281,-0.641583 0,0.67056 -1.53309,2.640949 -2.62997,3.380137 -1.06031,0.714542 -1.54514,0.721154 -3.44506,0.04699 z m -4.5083,-2.004058 c -1.54429,-0.279998 -2.40279,-0.706564 -3.16178,-1.571005 -0.77907,-0.887307 -0.80697,-1.00647 -0.80697,-3.445479 0,-1.389509 0.0893,-2.486697 0.19843,-2.438188 0.10914,0.04851 1.10428,0.544436 2.21143,1.102066 4.40274,2.217513 8.7472,1.312659 10.67133,-2.222598 0.85903,-1.578334 0.95373,-2.85552 0.56757,-7.654816 -0.18269,-2.270553 -0.1428,-3.092336 0.21837,-4.497916 0.6295,-2.449865 0.85775,-2.608234 2.48372,-1.723269 1.77037,0.963552 3.15214,2.131409 3.64152,3.077768 0.57296,1.107986 0.2844,1.328426 -1.07797,0.823495 -0.89176,-0.330512 -1.256,-0.363069 -1.48622,-0.13285 -0.54242,0.542425 -0.59018,2.912779 -0.10057,4.99183 0.60768,2.580436 0.46193,5.873446 -0.32676,7.382817 -1.15401,2.208477 -4.52374,4.718328 -7.60815,5.666713 -1.7038,0.523883 -4.34778,0.836557 -5.42395,0.641432 z m -37.96771,-6.481897 c -0.84229,-0.461521 -3.3073,-2.947979 -3.3073,-3.336078 0,-1.374151 1.75128,-2.803311 3.25616,-2.65724 1.10224,0.10699 1.55458,1.050047 1.71691,3.579501 0.15974,2.489041 -0.30348,3.160273 -1.66577,2.413817 z m 18.24617,-0.234259 c -0.44369,-0.490273 -0.46219,-0.726178 -0.19977,-2.547713 0.16,-1.11061 0.44779,-2.105427 0.6442,-2.226813 0.6797,-0.420076 2.91552,0.474584 3.49696,1.399305 0.22376,0.355864 0.11214,0.688234 -0.53316,1.5875 -0.73719,1.027329 -2.26516,2.328024 -2.73482,2.328024 -0.10144,0 -0.40448,-0.243137 -0.67341,-0.540303 z m 20.72279,-0.347613 c -0.68624,-0.191725 -1.94781,-0.780724 -2.8035,-1.308888 -2.35495,-1.453557 -2.70775,-1.539587 -4.90979,-1.197242 -1.74405,0.271139 -2.03881,0.250822 -2.94243,-0.202835 -0.80422,-0.403752 -1.11848,-0.793877 -1.57795,-1.958845 -0.31556,-0.800079 -0.76377,-1.491282 -0.99602,-1.53601 -0.23619,-0.04549 -0.73847,0.333219 -1.13978,0.859372 -0.39463,0.517385 -0.85433,0.940697 -1.02156,0.940697 -0.16723,0 -0.75881,-0.309015 -1.31462,-0.686697 -0.55581,-0.377682 -1.56571,-0.767985 -2.24423,-0.867338 -1.21677,-0.178168 -1.23243,-0.193043 -1.14351,-1.086028 0.0496,-0.497964 0.38473,-1.863833 0.74476,-3.035265 0.36003,-1.171435 0.78568,-2.558137 0.94588,-3.081565 0.51004,-1.666452 0.21749,-1.926537 -1.96155,-1.743853 -2.8641,0.240115 -4.23086,-0.149929 -5.47395,-1.56215 -1.23104,-1.39853 -2.76456,-4.457216 -3.21092,-6.404332 -0.41148,-1.794976 -0.41159,-4.926008 -2.4e-4,-6.721794 0.56897,-2.483908 2.30734,-5.733331 3.94139,-7.367377 2.06653,-2.066537 3.87007,-2.743078 6.78708,-2.545958 2.45299,0.165764 6.31751,1.319326 9.5251,2.843247 2.52996,1.201982 6.16234,3.524228 6.3736,4.074751 0.0894,0.23293 -0.35389,0.980022 -1.09882,1.851978 -1.45911,1.707912 -1.23163,1.879632 0.58634,0.442608 1.50234,-1.18753 3.05461,-2.990118 4.41986,-5.132622 0.5332,-0.836745 1.06444,-1.521354 1.18054,-1.521354 0.1161,0 0.76983,0.370092 1.45273,0.822428 1.39341,0.922957 2.55325,2.666628 2.55325,3.83849 0,0.986175 -1.37574,3.861356 -3.13491,6.551676 -2.2396,3.425055 -1.86227,4.595765 2.3527,7.299555 1.15782,0.742712 2.10359,1.494986 2.10172,1.671722 -0.002,0.176734 -0.24271,1.084781 -0.53518,2.017882 -0.62194,1.984219 -0.71194,3.769786 -0.40303,7.995997 0.21176,2.896999 0.19012,3.149991 -0.36815,4.303217 -1.05063,2.170308 -3.91773,3.219622 -6.68481,2.446533 z m -19.22656,-18.09016 c 0.42572,-0.251481 1.03941,-0.995621 1.36374,-1.653646 0.50632,-1.027263 0.58969,-1.62656 0.58969,-4.239111 0,-3.929866 -0.41459,-5.573968 -1.73975,-6.899128 -0.62981,-0.629811 -1.36865,-1.076354 -1.96647,-1.188506 -1.91656,-0.359548 -4.33183,1.441858 -5.28717,3.943373 -1.26999,3.32541 0.60338,8.480731 3.70172,10.186791 0.7981,0.439462 2.46754,0.364561 3.33824,-0.149773 z m -2.82787,-1.516996 c -1.57908,-0.663953 -3.02391,-3.344511 -3.02391,-5.610191 0,-2.788042 2.64191,-5.34328 4.36036,-4.21731 1.60433,1.051196 2.33596,7.327927 1.05426,9.04462 -0.71027,0.951336 -1.42974,1.186939 -2.39071,0.782881 z m -63.4812,18.777534 c -0.14552,-0.04854 -0.5905,-0.160094 -0.98884,-0.247896 -0.39834,-0.0878 -0.91211,-0.446328 -1.1417,-0.796732 -0.37943,-0.579085 -0.37966,-0.710163 -0.002,-1.439553 0.49082,-0.949108 2.66085,-2.677448 3.3617,-2.677448 0.37641,0 0.49259,0.200851 0.4974,0.859896 0.003,0.472943 0.30056,1.574271 0.66023,2.447396 0.35968,0.873125 0.65451,1.676796 0.65518,1.785937 10e-4,0.19163 -2.50323,0.247952 -3.04148,0.0684 z M 372.5478,69.535984 c -0.33581,-0.212402 -0.32526,-0.374769 0.0796,-1.223696 0.25672,-0.538342 0.53746,-1.736002 0.62389,-2.66147 0.0902,-0.965893 0.28265,-1.68267 0.4518,-1.68267 0.16207,0 1.0415,0.487973 1.95428,1.084384 2.6653,1.741506 3.7745,3.913063 2.28751,4.478414 -0.85963,0.326832 -4.88234,0.330586 -5.39705,0.005 z m -74.62219,-0.687023 c -3.45177,-0.740182 -6.23903,-1.959999 -9.65729,-4.226427 -5.59588,-3.710271 -10.8793,-9.759942 -10.35347,-11.855027 0.0898,-0.357581 0.59627,-0.810175 1.28216,-1.145643 1.63084,-0.797639 4.26871,-2.805874 5.03816,-3.835593 1.16142,-1.554292 1.30683,-2.483509 1.12066,-7.161464 -0.33516,-8.421559 0.99681,-11.588193 4.86985,-11.577607 0.81522,0.0022 1.61425,0.09153 1.77562,0.198438 0.16136,0.106912 0.37701,1.087354 0.47921,2.17876 0.50951,5.441179 2.32712,9.260417 4.40712,9.260417 1.54294,0 2.13687,-1.220698 2.60388,-5.3517 0.35616,-3.150522 1.15434,-4.544225 2.7759,-4.847045 2.12009,-0.395918 8.10092,1.311355 11.7073,3.34194 2.747,1.546712 4.58235,3.433434 5.83679,6.000156 0.99004,2.025722 1.00051,2.080697 0.99459,5.222274 -0.007,3.561463 -0.32672,4.694748 -2.21048,7.828012 -1.40252,2.332824 -2.71107,3.227798 -4.92553,3.368805 -1.03,0.06558 -1.83011,0.256852 -2.01713,0.482195 -0.24038,0.289645 -0.15159,1.106173 0.39549,3.637039 0.388,1.794947 0.63181,3.455443 0.54181,3.689985 -0.09,0.234545 -0.59863,0.505709 -1.13028,0.602589 -1.2262,0.223438 -2.31735,0.985361 -2.82952,1.975776 -0.50271,0.972145 -0.75601,0.967523 -1.89739,-0.03462 -0.50583,-0.444129 -1.05728,-0.761645 -1.22544,-0.705593 -0.16816,0.05605 -0.52215,0.684755 -0.78664,1.397119 -0.2645,0.712361 -0.60655,1.446596 -0.76011,1.631632 -0.37288,0.449295 -3.78942,0.407165 -6.03526,-0.07442 z m 17.04426,-16.929684 c 1.39394,-0.913342 2.27151,-3.651935 2.26885,-7.080297 -0.002,-3.227804 -0.8421,-5.096183 -2.78447,-6.196304 -2.16496,-1.226195 -4.39482,-0.523249 -5.67117,1.787795 -0.92539,1.675584 -1.08548,5.296863 -0.329,7.442504 1.42035,4.028654 4.05022,5.661805 6.51579,4.046302 z M 312.185,50.642223 c -0.83536,-0.416488 -1.80525,-2.421771 -2.14378,-4.432337 -0.72505,-4.306164 1.65966,-7.706217 4.07332,-5.807631 0.87681,0.689695 1.27357,2.165076 1.27357,4.73578 0,4.041791 -1.37999,6.413151 -3.20311,5.504188 z m 54.41206,18.381607 -1.04626,-0.160891 -0.026,-1.719791 c -0.0157,-1.039919 -0.19777,-2.043372 -0.46049,-2.538312 -0.62452,-1.176536 -0.85329,-3.302019 -0.4173,-3.87721 0.32759,-0.432183 0.56414,-0.380843 3.62029,0.785736 3.72302,1.421135 3.88413,1.60202 3.58664,4.026794 -0.22341,1.82099 -0.4666,2.489198 -1.15733,3.179927 -0.56284,0.56284 -1.81256,0.655434 -4.09954,0.303747 z M 355.71062,50.368565 c -0.73401,-0.73401 -0.89959,-1.101664 -0.89959,-1.997514 0,-1.261708 0.6273,-2.659153 1.19367,-2.659153 1.11267,0 2.41149,3.728945 1.73748,4.98834 -0.42817,0.800042 -0.99188,0.708012 -2.03156,-0.331673 z m 2.18261,-15.111741 c -0.54768,-0.655197 -1.46522,-1.430761 -2.03899,-1.723474 -1.3731,-0.700505 -1.3431,-1.293822 0.14045,-2.777373 2.69216,-2.692149 4.63739,-0.464632 3.54287,4.056988 -0.16531,0.682903 -0.37886,1.330176 -0.47455,1.438384 -0.0957,0.108208 -0.6221,-0.339328 -1.16978,-0.994525 z M 287.1501,27.821226 c 0.32248,-1.612395 1.29052,-3.763281 2.13168,-4.736351 0.68478,-0.792176 1.06156,-1.009087 1.7528,-1.009087 0.55737,0 1.01441,0.18311 1.24536,0.498942 1.03113,1.410163 1.07714,4.964307 0.0684,5.284468 -0.27688,0.08787 -0.61785,0.08904 -0.75773,0.0026 -0.24839,-0.153512 -2.69019,0.187139 -3.95901,0.552314 -0.58988,0.169771 -0.6253,0.126155 -0.4815,-0.592879 z"
         id="path344"
         inkscape:connector-curvature="0"
         sodipodi:nodetypes="csscccccccsccccscccccsccccccsccccccccccccccsccccccccssccccsccccsscscsccccsccccsccscccccsssccccscscccccsscscsccsccccccccsssccccsscccsscsccccscccccccccscccccccssscccccsccscccccccccccccsscccccscccsscccccscccccscssccccsccccccscccccccsccccscccsccccccccssscscsscccssccccscscscccccccssssccssscsccccsccccccccssccccscccscccscsccccccsccccccccccccccccscsccccscscscccssscscccssccscccscc" />
      <path
         style="fill:#016369;stroke-width:0.26458332"
         d="m 341.21186,145.22491 c -0.52957,-0.58516 -1.48208,-2.9807 -1.48208,-3.72738 0,-1.13052 2.4704,-1.43307 4.43177,-0.54277 1.21295,0.55058 1.32445,0.86986 0.7677,2.19844 -0.94353,2.25158 -2.67922,3.21888 -3.71739,2.07171 z m -36.92749,-1.03856 c -0.8101,-0.8101 -1.77389,-3.43826 -1.51156,-4.12187 0.34304,-0.89396 4.90899,-0.26074 5.2906,0.73371 0.19249,0.50163 -1.09704,3.00037 -1.85685,3.59804 -0.88238,0.69408 -1.03488,0.67742 -1.92219,-0.20988 z m 16.6526,-0.2306 c -0.89955,-1.02453 -1.82903,-2.82442 -1.83888,-3.56087 -0.007,-0.53064 0.42211,-0.70829 2.22242,-0.91988 1.56124,-0.18349 4.31648,0.46776 4.54965,1.0754 0.19015,0.49552 -0.84157,2.4789 -1.83122,3.52034 -1.11739,1.17587 -1.99722,1.14325 -3.10197,-0.11499 z m -14.54469,-15.32397 c -3.05031,-0.82198 -7.03345,-1.10524 -8.97892,-0.63853 -0.75262,0.18055 -1.44403,0.25263 -1.53647,0.16019 -0.0924,-0.0924 -0.31888,-1.26672 -0.50318,-2.60951 -0.41171,-2.99964 -0.33142,-3.11868 2.22687,-3.30172 2.06136,-0.14749 2.91548,0.0677 5.86669,1.478 1.62838,0.77816 2.27039,0.94246 3.70417,0.94791 3.02913,0.0115 5.77507,-1.31717 7.42274,-3.59172 0.9612,-1.3269 1.24109,-2.29882 1.56579,-5.43726 0.25074,-2.42352 1.16802,-4.88199 1.92785,-5.16693 0.35068,-0.1315 3.78042,0.21993 4.3779,0.44858 0.51222,0.19603 0.39093,1.06505 -0.22659,1.62353 -0.95255,0.86146 -1.57515,2.42997 -2.12663,5.35761 -0.7187,3.81535 -1.69441,5.76848 -4.05924,8.12564 -3.23293,3.22245 -5.29953,3.77952 -9.66098,2.60421 z m 33.37818,-4.07792 c -4.19721,-0.58549 -8.32658,-2.70033 -11.19784,-5.73495 -2.66779,-2.81955 -4.69757,-6.48092 -4.3533,-7.85258 0.10185,-0.40579 0.67817,-0.96671 1.53489,-1.49385 2.39761,-1.47526 6.03807,-5.39866 6.03807,-6.50734 0,-0.13602 -1.43076,-1.49482 -3.17948,-3.019551 -2.75094,-2.398594 -3.16284,-2.861398 -3.05601,-3.433702 0.0679,-0.363802 0.24371,-1.301583 0.39069,-2.083959 0.14698,-0.782375 0.33461,-1.489874 0.41695,-1.572217 0.0824,-0.08235 0.71222,-0.02127 1.39972,0.135715 9.83522,2.245836 10.93173,2.169432 9.07586,-0.632412 -1.10706,-1.671368 -1.10089,-2.91075 0.0209,-4.18837 1.40271,-1.597607 6.2901,-5.101431 9.0866,-6.514299 2.56956,-1.298207 2.69923,-1.333375 4.49792,-1.219927 2.0038,0.126386 3.1436,0.59482 5.75782,2.366364 3.63505,2.463316 7.60364,7.181398 7.60364,9.039643 0,1.219089 -1.03523,2.550853 -2.80705,3.611129 -0.85113,0.509323 -2.13132,1.490358 -2.84487,2.180076 -1.20195,1.161794 -1.28577,1.325547 -1.13962,2.226199 0.35946,2.215041 2.96772,6.086041 7.406,10.991471 1.4083,1.55652 2.56054,2.99165 2.56054,3.18919 0,0.19754 -0.30606,0.97333 -0.68012,1.72398 -1.36042,2.73001 -3.23627,3.05521 -7.2359,1.25441 -2.66073,-1.19797 -4.22391,-1.44688 -5.17459,-0.82397 -0.83782,0.54896 -2.03097,2.91953 -2.66138,5.28768 -0.42107,1.5818 -0.59047,1.86387 -1.29589,2.1579 -2.00663,0.83638 -7.30317,1.31237 -10.16353,0.91337 z m 10.10803,-31.225562 c 4.18278,-1.564978 5.97337,-4.712261 4.08758,-7.18466 -1.9457,-2.550945 -5.73111,-2.396572 -9.93775,0.405273 -2.01171,1.339911 -2.7832,2.422277 -2.7832,3.904703 0,2.219666 1.78178,3.397033 5.15547,3.40664 1.41548,0.004 2.48089,-0.158928 3.4779,-0.531956 z m -45.73517,28.190132 c -2.7111,-1.34354 -4.85518,-1.82318 -6.98805,-1.56325 -0.95876,0.11684 -1.84633,0.21795 -1.97238,0.22469 -0.12604,0.007 -0.4237,-0.51127 -0.66146,-1.15112 -0.52858,-1.42253 -1.56811,-2.28096 -2.43064,-2.0072 -0.33371,0.10591 -1.65927,1.19004 -2.94568,2.40917 -2.52536,2.39328 -2.89936,2.53843 -4.6556,1.8068 -1.64654,-0.68593 -3.76181,-3.03241 -3.76181,-4.17301 0,-0.20666 1.21242,-2.54794 2.69426,-5.20284 l 2.69427,-4.8271 -0.45121,-2.68165 c -0.99571,-5.917679 -1.25907,-12.679318 -0.59153,-15.186912 0.7606,-2.857193 2.45178,-4.856967 5.16713,-6.109986 1.16128,-0.535881 1.99148,-0.69869 3.98083,-0.780666 3.90754,-0.16102 6.98166,0.846558 10.71851,3.513124 3.28299,2.34269 3.99718,3.790352 3.1841,6.454188 -0.77287,2.532144 -0.80177,3.123602 -0.16912,3.462184 0.56203,0.300789 2.48881,-0.354799 7.26766,-2.472836 0.85485,-0.378878 1.70157,-0.688869 1.8816,-0.688869 0.28109,0 0.54102,0.737524 1.35882,3.855559 0.11811,0.450307 -0.5242,1.102376 -3.59496,3.649584 -2.05632,1.70572 -3.80587,3.27622 -3.8879,3.48998 -0.19656,0.51222 1.74602,3.01167 3.51581,4.52364 l 1.39293,1.19002 -0.78038,1.53567 c -0.82276,1.6191 -1.30791,3.61286 -1.30791,5.37503 0,3.56664 -2.85513,6.28345 -6.59557,6.27603 -0.84452,-0.002 -1.76866,-0.27943 -3.06172,-0.92023 z M 303.4439,97.164696 c 1.9848,-1.670095 1.60325,-5.170371 -0.89609,-8.220477 -2.58309,-3.152326 -8.09233,-3.466979 -9.48058,-0.54147 -0.93052,1.960933 -0.35508,3.523025 2.21499,6.012801 3.26049,3.158636 6.41305,4.220528 8.16168,2.749146 z M 282.13219,84.073941 c -0.31894,-0.128469 -0.77638,-0.533464 -1.01654,-0.899986 -0.40236,-0.614082 -0.40352,-0.765818 -0.0148,-1.932461 0.51873,-1.556681 1.34958,-2.952829 1.87788,-3.155558 0.21777,-0.08357 0.70363,-0.07472 1.07968,0.01966 0.82626,0.207378 3.07282,2.259695 3.84989,3.517017 0.70476,1.140333 0.48519,1.4029 -1.81447,2.169781 -1.73515,0.578628 -3.00083,0.668576 -3.96168,0.281543 z m 77.90436,-2.432339 c -1.17641,-0.312451 -1.25528,-0.759349 -0.27067,-1.533845 0.6804,-0.535202 2.32144,-2.646579 2.51999,-3.242262 0.16951,-0.508503 1.22038,0.308404 1.90957,1.48441 0.76187,1.300025 0.86397,2.584146 0.25399,3.194135 -0.47651,0.476507 -2.79326,0.527725 -4.41288,0.09756 z m -9.72343,-3.560101 c -1.54429,-0.279998 -2.40279,-0.706564 -3.16178,-1.571005 -0.77907,-0.887307 -0.80697,-1.00647 -0.80697,-3.445479 0,-1.389509 0.0893,-2.486697 0.19843,-2.438188 0.10914,0.04851 1.10428,0.544436 2.21143,1.102066 4.40274,2.217513 8.7472,1.312659 10.67133,-2.222598 0.85903,-1.578334 0.95373,-2.85552 0.56757,-7.654816 -0.18269,-2.270553 -0.1428,-3.092336 0.21837,-4.497916 0.6295,-2.449865 0.85775,-2.608234 2.48372,-1.723269 1.77037,0.963552 3.15214,2.131409 3.64152,3.077768 0.57296,1.107986 0.2844,1.328426 -1.07797,0.823495 -0.89176,-0.330512 -1.256,-0.363069 -1.48622,-0.13285 -0.54242,0.542425 -0.59018,2.912779 -0.10057,4.99183 0.60768,2.580436 0.46193,5.873446 -0.32676,7.382817 -1.15401,2.208477 -4.52374,4.718328 -7.60815,5.666713 -1.7038,0.523883 -4.34778,0.836557 -5.42395,0.641432 z m 1.00125,-7.063769 c -0.68624,-0.191725 -1.94781,-0.780724 -2.8035,-1.308888 -2.35495,-1.453557 -2.70775,-1.539587 -4.90979,-1.197242 -1.74405,0.271139 -2.03881,0.250822 -2.94243,-0.202835 -0.80422,-0.403752 -1.11848,-0.793877 -1.57795,-1.958845 -0.31556,-0.800079 -0.76377,-1.491282 -0.99602,-1.53601 -0.23619,-0.04549 -0.73847,0.333219 -1.13978,0.859372 -0.39463,0.517385 -0.85433,0.940697 -1.02156,0.940697 -0.16723,0 -0.75881,-0.309015 -1.31462,-0.686697 -0.55581,-0.377682 -1.56571,-0.767985 -2.24423,-0.867338 -1.21677,-0.178168 -1.23243,-0.193043 -1.14351,-1.086028 0.0496,-0.497964 0.38473,-1.863833 0.74476,-3.035265 0.36003,-1.171435 0.78568,-2.558137 0.94588,-3.081565 0.51004,-1.666452 0.21749,-1.926537 -1.96155,-1.743853 -2.8641,0.240115 -4.23086,-0.149929 -5.47395,-1.56215 -1.23104,-1.39853 -2.76456,-4.457216 -3.21092,-6.404332 -0.41148,-1.794976 -0.41159,-4.926008 -2.4e-4,-6.721794 0.56897,-2.483908 2.30734,-5.733331 3.94139,-7.367377 2.06653,-2.066537 3.87007,-2.743078 6.78708,-2.545958 2.45299,0.165764 6.31751,1.319326 9.5251,2.843247 2.52996,1.201982 6.16234,3.524228 6.3736,4.074751 0.0894,0.23293 -0.35389,0.980022 -1.09882,1.851978 -1.45911,1.707912 -1.23163,1.879632 0.58634,0.442608 1.50234,-1.18753 3.05461,-2.990118 4.41986,-5.132622 0.5332,-0.836745 1.06444,-1.521354 1.18054,-1.521354 0.1161,0 0.76983,0.370092 1.45273,0.822428 1.39341,0.922957 2.55325,2.666628 2.55325,3.83849 0,0.986175 -1.37574,3.861356 -3.13491,6.551676 -2.2396,3.425055 -1.86227,4.595765 2.3527,7.299555 1.15782,0.742712 2.10359,1.494986 2.10172,1.671722 -0.002,0.176734 -0.24271,1.084781 -0.53518,2.017882 -0.62194,1.984219 -0.71194,3.769786 -0.40303,7.995997 0.21176,2.896999 0.19012,3.149991 -0.36815,4.303217 -1.05063,2.170308 -3.91773,3.219622 -6.68481,2.446533 z m -19.22656,-18.09016 c 0.42572,-0.251481 1.03941,-0.995621 1.36374,-1.653646 0.50632,-1.027263 0.58969,-1.62656 0.58969,-4.239111 0,-3.929866 -0.41459,-5.573968 -1.73975,-6.899128 -0.62981,-0.629811 -1.36865,-1.076354 -1.96647,-1.188506 -1.91656,-0.359548 -4.33183,1.441858 -5.28717,3.943373 -1.26999,3.32541 0.60338,8.480731 3.70172,10.186791 0.7981,0.439462 2.46754,0.364561 3.33824,-0.149773 z M 265.77874,70.18811 c -0.14552,-0.04854 -0.5905,-0.160094 -0.98884,-0.247896 -0.39834,-0.0878 -0.91211,-0.446328 -1.1417,-0.796732 -0.37943,-0.579085 -0.37966,-0.710163 -0.002,-1.439553 0.49082,-0.949108 2.66085,-2.677448 3.3617,-2.677448 0.37641,0 0.49259,0.200851 0.4974,0.859896 0.003,0.472943 0.30056,1.574271 0.66023,2.447396 0.35968,0.873125 0.65451,1.676796 0.65518,1.785937 10e-4,0.19163 -2.50323,0.247952 -3.04148,0.0684 z M 372.5478,69.535984 c -0.33581,-0.212402 -0.32526,-0.374769 0.0796,-1.223696 0.25672,-0.538342 0.53746,-1.736002 0.62389,-2.66147 0.0902,-0.965893 0.28265,-1.68267 0.4518,-1.68267 0.16207,0 1.0415,0.487973 1.95428,1.084384 2.6653,1.741506 3.7745,3.913063 2.28751,4.478414 -0.85963,0.326832 -4.88234,0.330586 -5.39705,0.005 z m -74.62219,-0.687023 c -3.45177,-0.740182 -6.23903,-1.959999 -9.65729,-4.226427 -5.59588,-3.710271 -10.8793,-9.759942 -10.35347,-11.855027 0.0898,-0.357581 0.59627,-0.810175 1.28216,-1.145643 1.63084,-0.797639 4.26871,-2.805874 5.03816,-3.835593 1.16142,-1.554292 1.30683,-2.483509 1.12066,-7.161464 -0.33516,-8.421559 0.99681,-11.588193 4.86985,-11.577607 0.81522,0.0022 1.61425,0.09153 1.77562,0.198438 0.16136,0.106912 0.37701,1.087354 0.47921,2.17876 0.50951,5.441179 2.32712,9.260417 4.40712,9.260417 1.54294,0 2.13687,-1.220698 2.60388,-5.3517 0.35616,-3.150522 1.15434,-4.544225 2.7759,-4.847045 2.12009,-0.395918 8.10092,1.311355 11.7073,3.34194 2.747,1.546712 4.58235,3.433434 5.83679,6.000156 0.99004,2.025722 1.00051,2.080697 0.99459,5.222274 -0.007,3.561463 -0.32672,4.694748 -2.21048,7.828012 -1.40252,2.332824 -2.71107,3.227798 -4.92553,3.368805 -1.03,0.06558 -1.83011,0.256852 -2.01713,0.482195 -0.24038,0.289645 -0.15159,1.106173 0.39549,3.637039 0.388,1.794947 0.63181,3.455443 0.54181,3.689985 -0.09,0.234545 -0.59863,0.505709 -1.13028,0.602589 -1.2262,0.223438 -2.31735,0.985361 -2.82952,1.975776 -0.50271,0.972145 -0.75601,0.967523 -1.89739,-0.03462 -0.50583,-0.444129 -1.05728,-0.761645 -1.22544,-0.705593 -0.16816,0.05605 -0.52215,0.684755 -0.78664,1.397119 -0.2645,0.712361 -0.60655,1.446596 -0.76011,1.631632 -0.37288,0.449295 -3.78942,0.407165 -6.03526,-0.07442 z m 17.04426,-16.929684 c 1.39394,-0.913342 2.27151,-3.651935 2.26885,-7.080297 -0.002,-3.227804 -0.8421,-5.096183 -2.78447,-6.196304 -2.16496,-1.226195 -4.39482,-0.523249 -5.67117,1.787795 -0.92539,1.675584 -1.08548,5.296863 -0.329,7.442504 1.42035,4.028654 4.05022,5.661805 6.51579,4.046302 z m 40.74075,-1.550712 c -0.73401,-0.73401 -0.89959,-1.101664 -0.89959,-1.997514 0,-1.261708 0.6273,-2.659153 1.19367,-2.659153 1.11267,0 2.41149,3.728945 1.73748,4.98834 -0.42817,0.800042 -0.99188,0.708012 -2.03156,-0.331673 z"
         id="path342"
         inkscape:connector-curvature="0"
         sodipodi:nodetypes="csscccccccsccccscssccccsccccsscccccsccscccccsssccccscscccccsscscscccccsssccccsscccsscsccccscccccccccccccccccccscccccsccccccscccccccccccccssscscsscccssccccscscscccccccssssccccccsccccccccssccccscccscccscsccccccsccccccccccccccccsssc" />
    </g>
  </g>
</svg>
